<svg id="visual" viewBox="0 0 1920 1080" width="1920" height="1080" xmlns="http://www.w3.org/2000/svg" xmlns:xlink="http://www.w3.org/1999/xlink" version="1.1"><rect width="1920" height="1080" fill="#4d46ba"></rect><g><g transform="translate(352 841)"><path d="M150.3 -169.3C200.4 -137.1 250.5 -95.1 262.2 -44C273.9 7.1 247.3 67.3 214.9 124.6C182.4 181.9 144.1 236.4 91.4 259.1C38.6 281.8 -28.7 272.8 -80.5 244C-132.3 215.3 -168.7 166.8 -200.4 114.5C-232 62.1 -259 5.8 -257.9 -53.3C-256.8 -112.4 -227.6 -174.4 -179.9 -207.1C-132.3 -239.7 -66.1 -243 -8 -233.5C50.1 -224 100.2 -201.6 150.3 -169.3Z" fill="#8987E1"></path></g><g transform="translate(749 272)"><path d="M132.5 -151.9C175.2 -122.1 215.7 -83.6 233.2 -33.8C250.7 16 245.1 77.1 219.7 132.1C194.2 187 148.9 235.7 97.1 245.3C45.3 254.8 -13 225.3 -61.5 195.9C-110.1 166.6 -149 137.6 -171.8 98.8C-194.5 60.1 -201.1 11.7 -191.8 -32.5C-182.4 -76.7 -157 -116.8 -122.4 -148.1C-87.8 -179.4 -43.9 -201.8 0.5 -202.4C44.9 -203.1 89.8 -181.8 132.5 -151.9Z" fill="#8987E1"></path></g><g transform="translate(1617 781)"><path d="M127 -150.5C170.9 -114.4 217.2 -80.5 228.2 -37.4C239.1 5.6 214.7 57.7 181.1 94C147.6 130.4 105 150.9 61.8 164.1C18.7 177.2 -25 183 -69 173.8C-113 164.7 -157.3 140.5 -184.6 102.2C-212 63.9 -222.3 11.4 -206.9 -29.6C-191.5 -70.7 -150.3 -100.4 -111.5 -137.4C-72.8 -174.4 -36.4 -218.8 2.6 -221.9C41.5 -224.9 83 -186.7 127 -150.5Z" fill="#8987E1"></path></g><g transform="translate(1412 55)"><path d="M110.9 -137.2C143.6 -104.7 170 -69.7 174.1 -32.7C178.2 4.2 160 43 139.2 81.5C118.3 119.9 94.8 157.9 61.6 170.5C28.4 183.1 -14.5 170.3 -59.9 157C-105.4 143.8 -153.4 130 -175.4 98.2C-197.4 66.4 -193.5 16.5 -180.5 -27.5C-167.6 -71.5 -145.8 -109.6 -114.2 -142.3C-82.6 -175 -41.3 -202.4 -1.1 -201.1C39.1 -199.8 78.2 -169.7 110.9 -137.2Z" fill="#8987E1"></path></g><g transform="translate(60 30)"><path d="M112.7 -125.2C150.9 -102.2 190.3 -71.3 195.5 -35.4C200.7 0.5 171.9 41.6 143.8 76.2C115.7 110.8 88.3 139.1 52.4 158.4C16.5 177.8 -27.9 188.3 -68.4 177.9C-109 167.6 -145.6 136.4 -166.1 97.5C-186.5 58.7 -190.8 12.1 -184 -33.5C-177.2 -79.1 -159.2 -123.7 -126.7 -147.7C-94.2 -171.7 -47.1 -175 -4.9 -169.1C37.2 -163.2 74.4 -148.1 112.7 -125.2Z" fill="#8987E1"></path></g><g transform="translate(1000 863)"><path d="M104.6 -126.9C129.7 -103.6 140.2 -65.1 146.8 -26.1C153.5 12.9 156.4 52.4 142 86.3C127.6 120.2 96 148.5 60.4 157.9C24.9 167.3 -14.5 157.8 -50.2 142.8C-85.9 127.7 -117.7 107 -134.8 77.7C-151.9 48.4 -154.1 10.4 -149.2 -27.8C-144.2 -66 -132 -104.4 -105.9 -127.5C-79.9 -150.5 -39.9 -158.3 -0.1 -158.2C39.8 -158.1 79.5 -150.1 104.6 -126.9Z" fill="#8987E1"></path></g></g></svg>