<svg id="visual" viewBox="0 0 1920 1080" width="1920" height="1080" xmlns="http://www.w3.org/2000/svg" xmlns:xlink="http://www.w3.org/1999/xlink" version="1.1"><rect x="0" y="0" width="1920" height="1080" fill="#0e115c"></rect><path d="M0 266L13.8 265.8C27.7 265.7 55.3 265.3 83.2 264.2C111 263 139 261 166.8 259.8C194.7 258.7 222.3 258.3 250.2 259.5C278 260.7 306 263.3 333.8 262C361.7 260.7 389.3 255.3 417.2 252.3C445 249.3 473 248.7 500.8 252C528.7 255.3 556.3 262.7 584.2 262.5C612 262.3 640 254.7 667.8 252.5C695.7 250.3 723.3 253.7 751.2 254.5C779 255.3 807 253.7 834.8 253.5C862.7 253.3 890.3 254.7 918.2 254.5C946 254.3 974 252.7 1001.8 255.2C1029.7 257.7 1057.3 264.3 1085.2 263.5C1113 262.7 1141 254.3 1168.8 251.5C1196.7 248.7 1224.3 251.3 1252.2 255.2C1280 259 1308 264 1335.8 265.8C1363.7 267.7 1391.3 266.3 1419.2 264.3C1447 262.3 1475 259.7 1502.8 258.8C1530.7 258 1558.3 259 1586.2 258.7C1614 258.3 1642 256.7 1669.8 255C1697.7 253.3 1725.3 251.7 1753.2 253.2C1781 254.7 1809 259.3 1836.8 261.3C1864.7 263.3 1892.3 262.7 1906.2 262.3L1920 262L1920 0L1906.2 0C1892.3 0 1864.7 0 1836.8 0C1809 0 1781 0 1753.2 0C1725.3 0 1697.7 0 1669.8 0C1642 0 1614 0 1586.2 0C1558.3 0 1530.7 0 1502.8 0C1475 0 1447 0 1419.2 0C1391.3 0 1363.7 0 1335.8 0C1308 0 1280 0 1252.2 0C1224.3 0 1196.7 0 1168.8 0C1141 0 1113 0 1085.2 0C1057.3 0 1029.7 0 1001.8 0C974 0 946 0 918.2 0C890.3 0 862.7 0 834.8 0C807 0 779 0 751.2 0C723.3 0 695.7 0 667.8 0C640 0 612 0 584.2 0C556.3 0 528.7 0 500.8 0C473 0 445 0 417.2 0C389.3 0 361.7 0 333.8 0C306 0 278 0 250.2 0C222.3 0 194.7 0 166.8 0C139 0 111 0 83.2 0C55.3 0 27.7 0 13.8 0L0 0Z" fill="#4d46ba"></path><path d="M0 198L13.8 197.7C27.7 197.3 55.3 196.7 83.2 197.8C111 199 139 202 166.8 199.8C194.7 197.7 222.3 190.3 250.2 189.2C278 188 306 193 333.8 194.2C361.7 195.3 389.3 192.7 417.2 193C445 193.3 473 196.7 500.8 196.7C528.7 196.7 556.3 193.3 584.2 193.2C612 193 640 196 667.8 195.7C695.7 195.3 723.3 191.7 751.2 188.7C779 185.7 807 183.3 834.8 183.2C862.7 183 890.3 185 918.2 186.3C946 187.7 974 188.3 1001.8 188.5C1029.7 188.7 1057.3 188.3 1085.2 188C1113 187.7 1141 187.3 1168.8 187C1196.7 186.7 1224.3 186.3 1252.2 189C1280 191.7 1308 197.3 1335.8 199C1363.7 200.7 1391.3 198.3 1419.2 196.2C1447 194 1475 192 1502.8 192C1530.7 192 1558.3 194 1586.2 193.2C1614 192.3 1642 188.7 1669.8 187.8C1697.7 187 1725.3 189 1753.2 188.5C1781 188 1809 185 1836.8 184C1864.7 183 1892.3 184 1906.2 184.5L1920 185L1920 0L1906.2 0C1892.3 0 1864.7 0 1836.8 0C1809 0 1781 0 1753.2 0C1725.3 0 1697.7 0 1669.8 0C1642 0 1614 0 1586.2 0C1558.3 0 1530.7 0 1502.8 0C1475 0 1447 0 1419.2 0C1391.3 0 1363.7 0 1335.8 0C1308 0 1280 0 1252.2 0C1224.3 0 1196.7 0 1168.8 0C1141 0 1113 0 1085.2 0C1057.3 0 1029.7 0 1001.8 0C974 0 946 0 918.2 0C890.3 0 862.7 0 834.8 0C807 0 779 0 751.2 0C723.3 0 695.7 0 667.8 0C640 0 612 0 584.2 0C556.3 0 528.7 0 500.8 0C473 0 445 0 417.2 0C389.3 0 361.7 0 333.8 0C306 0 278 0 250.2 0C222.3 0 194.7 0 166.8 0C139 0 111 0 83.2 0C55.3 0 27.7 0 13.8 0L0 0Z" fill="#7a46ac"></path><path d="M0 135L13.8 132.8C27.7 130.7 55.3 126.3 83.2 124.3C111 122.3 139 122.7 166.8 125.7C194.7 128.7 222.3 134.3 250.2 133.8C278 133.3 306 126.7 333.8 125.8C361.7 125 389.3 130 417.2 132.7C445 135.3 473 135.7 500.8 135.7C528.7 135.7 556.3 135.3 584.2 134.5C612 133.7 640 132.3 667.8 131.7C695.7 131 723.3 131 751.2 128.8C779 126.7 807 122.3 834.8 124C862.7 125.7 890.3 133.3 918.2 133.3C946 133.3 974 125.7 1001.8 123.5C1029.7 121.3 1057.3 124.7 1085.2 127.5C1113 130.3 1141 132.7 1168.8 132.2C1196.7 131.7 1224.3 128.3 1252.2 125.8C1280 123.3 1308 121.7 1335.8 121.2C1363.7 120.7 1391.3 121.3 1419.2 124C1447 126.7 1475 131.3 1502.8 131.3C1530.7 131.3 1558.3 126.7 1586.2 126C1614 125.3 1642 128.7 1669.8 131.2C1697.7 133.7 1725.3 135.3 1753.2 136.3C1781 137.3 1809 137.7 1836.8 138.2C1864.7 138.7 1892.3 139.3 1906.2 139.7L1920 140L1920 0L1906.2 0C1892.3 0 1864.7 0 1836.8 0C1809 0 1781 0 1753.2 0C1725.3 0 1697.7 0 1669.8 0C1642 0 1614 0 1586.2 0C1558.3 0 1530.7 0 1502.8 0C1475 0 1447 0 1419.2 0C1391.3 0 1363.7 0 1335.8 0C1308 0 1280 0 1252.2 0C1224.3 0 1196.7 0 1168.8 0C1141 0 1113 0 1085.2 0C1057.3 0 1029.7 0 1001.8 0C974 0 946 0 918.2 0C890.3 0 862.7 0 834.8 0C807 0 779 0 751.2 0C723.3 0 695.7 0 667.8 0C640 0 612 0 584.2 0C556.3 0 528.7 0 500.8 0C473 0 445 0 417.2 0C389.3 0 361.7 0 333.8 0C306 0 278 0 250.2 0C222.3 0 194.7 0 166.8 0C139 0 111 0 83.2 0C55.3 0 27.7 0 13.8 0L0 0Z" fill="#954a9e"></path><path d="M0 57L13.8 58.7C27.7 60.3 55.3 63.7 83.2 64C111 64.3 139 61.7 166.8 60.5C194.7 59.3 222.3 59.7 250.2 61.5C278 63.3 306 66.7 333.8 66C361.7 65.3 389.3 60.7 417.2 58.8C445 57 473 58 500.8 60.5C528.7 63 556.3 67 584.2 66.5C612 66 640 61 667.8 57.8C695.7 54.7 723.3 53.3 751.2 56C779 58.7 807 65.3 834.8 67C862.7 68.7 890.3 65.3 918.2 64.5C946 63.7 974 65.3 1001.8 66.2C1029.7 67 1057.3 67 1085.2 68.7C1113 70.3 1141 73.7 1168.8 75.2C1196.7 76.7 1224.3 76.3 1252.2 75.2C1280 74 1308 72 1335.8 70.3C1363.7 68.7 1391.3 67.3 1419.2 68.5C1447 69.7 1475 73.3 1502.8 73.5C1530.7 73.7 1558.3 70.3 1586.2 66C1614 61.7 1642 56.3 1669.8 55.3C1697.7 54.3 1725.3 57.7 1753.2 60.5C1781 63.3 1809 65.7 1836.8 67.2C1864.7 68.7 1892.3 69.3 1906.2 69.7L1920 70L1920 0L1906.2 0C1892.3 0 1864.7 0 1836.8 0C1809 0 1781 0 1753.2 0C1725.3 0 1697.7 0 1669.8 0C1642 0 1614 0 1586.2 0C1558.3 0 1530.7 0 1502.8 0C1475 0 1447 0 1419.2 0C1391.3 0 1363.7 0 1335.8 0C1308 0 1280 0 1252.2 0C1224.3 0 1196.7 0 1168.8 0C1141 0 1113 0 1085.2 0C1057.3 0 1029.7 0 1001.8 0C974 0 946 0 918.2 0C890.3 0 862.7 0 834.8 0C807 0 779 0 751.2 0C723.3 0 695.7 0 667.8 0C640 0 612 0 584.2 0C556.3 0 528.7 0 500.8 0C473 0 445 0 417.2 0C389.3 0 361.7 0 333.8 0C306 0 278 0 250.2 0C222.3 0 194.7 0 166.8 0C139 0 111 0 83.2 0C55.3 0 27.7 0 13.8 0L0 0Z" fill="#a65393"></path></svg>