<svg id="visual" viewBox="0 0 1920 1080" width="1920" height="1080" xmlns="http://www.w3.org/2000/svg" xmlns:xlink="http://www.w3.org/1999/xlink" version="1.1"><rect x="0" y="0" width="1920" height="1080" fill="#0e115c"></rect><path d="M0 264L13.8 265.5C27.7 267 55.3 270 83.2 269C111 268 139 263 166.8 264C194.7 265 222.3 272 250.2 276.3C278 280.7 306 282.3 333.8 278.2C361.7 274 389.3 264 417.2 262.8C445 261.7 473 269.3 500.8 274.2C528.7 279 556.3 281 584.2 281.5C612 282 640 281 667.8 278.8C695.7 276.7 723.3 273.3 751.2 271.7C779 270 807 270 834.8 271.8C862.7 273.7 890.3 277.3 918.2 279.8C946 282.3 974 283.7 1001.8 280.5C1029.7 277.3 1057.3 269.7 1085.2 267.8C1113 266 1141 270 1168.8 271.7C1196.7 273.3 1224.3 272.7 1252.2 275C1280 277.3 1308 282.7 1335.8 280.8C1363.7 279 1391.3 270 1419.2 267.7C1447 265.3 1475 269.7 1502.8 271.8C1530.7 274 1558.3 274 1586.2 269.8C1614 265.7 1642 257.3 1669.8 259.5C1697.7 261.7 1725.3 274.3 1753.2 279.3C1781 284.3 1809 281.7 1836.8 276.2C1864.7 270.7 1892.3 262.3 1906.2 258.2L1920 254L1920 0L1906.2 0C1892.3 0 1864.7 0 1836.8 0C1809 0 1781 0 1753.2 0C1725.3 0 1697.7 0 1669.8 0C1642 0 1614 0 1586.2 0C1558.3 0 1530.7 0 1502.8 0C1475 0 1447 0 1419.2 0C1391.3 0 1363.7 0 1335.8 0C1308 0 1280 0 1252.2 0C1224.3 0 1196.7 0 1168.8 0C1141 0 1113 0 1085.2 0C1057.3 0 1029.7 0 1001.8 0C974 0 946 0 918.2 0C890.3 0 862.7 0 834.8 0C807 0 779 0 751.2 0C723.3 0 695.7 0 667.8 0C640 0 612 0 584.2 0C556.3 0 528.7 0 500.8 0C473 0 445 0 417.2 0C389.3 0 361.7 0 333.8 0C306 0 278 0 250.2 0C222.3 0 194.7 0 166.8 0C139 0 111 0 83.2 0C55.3 0 27.7 0 13.8 0L0 0Z" fill="#4d46ba"></path><path d="M0 208L13.8 207.7C27.7 207.3 55.3 206.7 83.2 207.3C111 208 139 210 166.8 213C194.7 216 222.3 220 250.2 220.5C278 221 306 218 333.8 216.5C361.7 215 389.3 215 417.2 215C445 215 473 215 500.8 213.3C528.7 211.7 556.3 208.3 584.2 205.2C612 202 640 199 667.8 202.2C695.7 205.3 723.3 214.7 751.2 214.8C779 215 807 206 834.8 204C862.7 202 890.3 207 918.2 206.5C946 206 974 200 1001.8 198C1029.7 196 1057.3 198 1085.2 201.8C1113 205.7 1141 211.3 1168.8 211.7C1196.7 212 1224.3 207 1252.2 207.8C1280 208.7 1308 215.3 1335.8 219.7C1363.7 224 1391.3 226 1419.2 227C1447 228 1475 228 1502.8 224.3C1530.7 220.7 1558.3 213.3 1586.2 211.2C1614 209 1642 212 1669.8 213.3C1697.7 214.7 1725.3 214.3 1753.2 216.7C1781 219 1809 224 1836.8 222.8C1864.7 221.7 1892.3 214.3 1906.2 210.7L1920 207L1920 0L1906.2 0C1892.3 0 1864.7 0 1836.8 0C1809 0 1781 0 1753.2 0C1725.3 0 1697.7 0 1669.8 0C1642 0 1614 0 1586.2 0C1558.3 0 1530.7 0 1502.8 0C1475 0 1447 0 1419.2 0C1391.3 0 1363.7 0 1335.8 0C1308 0 1280 0 1252.2 0C1224.3 0 1196.7 0 1168.8 0C1141 0 1113 0 1085.2 0C1057.3 0 1029.7 0 1001.8 0C974 0 946 0 918.2 0C890.3 0 862.7 0 834.8 0C807 0 779 0 751.2 0C723.3 0 695.7 0 667.8 0C640 0 612 0 584.2 0C556.3 0 528.7 0 500.8 0C473 0 445 0 417.2 0C389.3 0 361.7 0 333.8 0C306 0 278 0 250.2 0C222.3 0 194.7 0 166.8 0C139 0 111 0 83.2 0C55.3 0 27.7 0 13.8 0L0 0Z" fill="#7145b0"></path><path d="M0 171L13.8 170.3C27.7 169.7 55.3 168.3 83.2 168.8C111 169.3 139 171.7 166.8 173.2C194.7 174.7 222.3 175.3 250.2 171C278 166.7 306 157.3 333.8 152.3C361.7 147.3 389.3 146.7 417.2 145.3C445 144 473 142 500.8 146.7C528.7 151.3 556.3 162.7 584.2 168.3C612 174 640 174 667.8 171.5C695.7 169 723.3 164 751.2 164.3C779 164.7 807 170.3 834.8 169.2C862.7 168 890.3 160 918.2 157.8C946 155.7 974 159.3 1001.8 161.3C1029.7 163.3 1057.3 163.7 1085.2 161.8C1113 160 1141 156 1168.8 157.7C1196.7 159.3 1224.3 166.7 1252.2 164.7C1280 162.7 1308 151.3 1335.8 151C1363.7 150.7 1391.3 161.3 1419.2 167.5C1447 173.7 1475 175.3 1502.8 175C1530.7 174.7 1558.3 172.3 1586.2 167C1614 161.7 1642 153.3 1669.8 154.7C1697.7 156 1725.3 167 1753.2 167C1781 167 1809 156 1836.8 154.3C1864.7 152.7 1892.3 160.3 1906.2 164.2L1920 168L1920 0L1906.2 0C1892.3 0 1864.7 0 1836.8 0C1809 0 1781 0 1753.2 0C1725.3 0 1697.7 0 1669.8 0C1642 0 1614 0 1586.2 0C1558.3 0 1530.7 0 1502.8 0C1475 0 1447 0 1419.2 0C1391.3 0 1363.7 0 1335.8 0C1308 0 1280 0 1252.2 0C1224.3 0 1196.7 0 1168.8 0C1141 0 1113 0 1085.2 0C1057.3 0 1029.7 0 1001.8 0C974 0 946 0 918.2 0C890.3 0 862.7 0 834.8 0C807 0 779 0 751.2 0C723.3 0 695.7 0 667.8 0C640 0 612 0 584.2 0C556.3 0 528.7 0 500.8 0C473 0 445 0 417.2 0C389.3 0 361.7 0 333.8 0C306 0 278 0 250.2 0C222.3 0 194.7 0 166.8 0C139 0 111 0 83.2 0C55.3 0 27.7 0 13.8 0L0 0Z" fill="#8947a5"></path><path d="M0 94L13.8 97.2C27.7 100.3 55.3 106.7 83.2 106.5C111 106.3 139 99.7 166.8 99.8C194.7 100 222.3 107 250.2 106.7C278 106.3 306 98.7 333.8 96.8C361.7 95 389.3 99 417.2 99.3C445 99.7 473 96.3 500.8 98.8C528.7 101.3 556.3 109.7 584.2 113.7C612 117.7 640 117.3 667.8 113C695.7 108.7 723.3 100.3 751.2 98C779 95.7 807 99.3 834.8 101.2C862.7 103 890.3 103 918.2 104.7C946 106.3 974 109.7 1001.8 111.7C1029.7 113.7 1057.3 114.3 1085.2 114.5C1113 114.7 1141 114.3 1168.8 114.3C1196.7 114.3 1224.3 114.7 1252.2 112.5C1280 110.3 1308 105.7 1335.8 102.5C1363.7 99.3 1391.3 97.7 1419.2 96.3C1447 95 1475 94 1502.8 92.5C1530.7 91 1558.3 89 1586.2 94.8C1614 100.7 1642 114.3 1669.8 119.2C1697.7 124 1725.3 120 1753.2 113.8C1781 107.7 1809 99.3 1836.8 95.8C1864.7 92.3 1892.3 93.7 1906.2 94.3L1920 95L1920 0L1906.2 0C1892.3 0 1864.7 0 1836.8 0C1809 0 1781 0 1753.2 0C1725.3 0 1697.7 0 1669.8 0C1642 0 1614 0 1586.2 0C1558.3 0 1530.7 0 1502.8 0C1475 0 1447 0 1419.2 0C1391.3 0 1363.7 0 1335.8 0C1308 0 1280 0 1252.2 0C1224.3 0 1196.7 0 1168.8 0C1141 0 1113 0 1085.2 0C1057.3 0 1029.7 0 1001.8 0C974 0 946 0 918.2 0C890.3 0 862.7 0 834.8 0C807 0 779 0 751.2 0C723.3 0 695.7 0 667.8 0C640 0 612 0 584.2 0C556.3 0 528.7 0 500.8 0C473 0 445 0 417.2 0C389.3 0 361.7 0 333.8 0C306 0 278 0 250.2 0C222.3 0 194.7 0 166.8 0C139 0 111 0 83.2 0C55.3 0 27.7 0 13.8 0L0 0Z" fill="#9a4c9b"></path><path d="M0 52L13.8 49.5C27.7 47 55.3 42 83.2 43.8C111 45.7 139 54.3 166.8 54.3C194.7 54.3 222.3 45.7 250.2 45.7C278 45.7 306 54.3 333.8 56C361.7 57.7 389.3 52.3 417.2 53.3C445 54.3 473 61.7 500.8 61.7C528.7 61.7 556.3 54.3 584.2 51.5C612 48.7 640 50.3 667.8 52.8C695.7 55.3 723.3 58.7 751.2 57.8C779 57 807 52 834.8 48.8C862.7 45.7 890.3 44.3 918.2 43.3C946 42.3 974 41.7 1001.8 41.3C1029.7 41 1057.3 41 1085.2 42.2C1113 43.3 1141 45.7 1168.8 48.8C1196.7 52 1224.3 56 1252.2 57.7C1280 59.3 1308 58.7 1335.8 59.3C1363.7 60 1391.3 62 1419.2 62.8C1447 63.7 1475 63.3 1502.8 59.3C1530.7 55.3 1558.3 47.7 1586.2 48.5C1614 49.3 1642 58.7 1669.8 58.3C1697.7 58 1725.3 48 1753.2 44.2C1781 40.3 1809 42.7 1836.8 47.2C1864.7 51.7 1892.3 58.3 1906.2 61.7L1920 65L1920 0L1906.2 0C1892.3 0 1864.7 0 1836.8 0C1809 0 1781 0 1753.2 0C1725.3 0 1697.7 0 1669.8 0C1642 0 1614 0 1586.2 0C1558.3 0 1530.7 0 1502.8 0C1475 0 1447 0 1419.2 0C1391.3 0 1363.7 0 1335.8 0C1308 0 1280 0 1252.2 0C1224.3 0 1196.7 0 1168.8 0C1141 0 1113 0 1085.2 0C1057.3 0 1029.7 0 1001.8 0C974 0 946 0 918.2 0C890.3 0 862.7 0 834.8 0C807 0 779 0 751.2 0C723.3 0 695.7 0 667.8 0C640 0 612 0 584.2 0C556.3 0 528.7 0 500.8 0C473 0 445 0 417.2 0C389.3 0 361.7 0 333.8 0C306 0 278 0 250.2 0C222.3 0 194.7 0 166.8 0C139 0 111 0 83.2 0C55.3 0 27.7 0 13.8 0L0 0Z" fill="#a65393"></path></svg>